<svg id="bold" enable-background="new 0 0 32 32" height="512" viewBox="0 0 32 32" width="512" xmlns="http://www.w3.org/2000/svg"><path d="m26 32h-20c-3.314 0-6-2.686-6-6v-20c0-3.314 2.686-6 6-6h20c3.314 0 6 2.686 6 6v20c0 3.314-2.686 6-6 6z" fill="#e3f8fa"/><g fill="#8ce1eb"><path d="m19.158 12.96-.733.733c.12.233.227.473.307.72.3-.053.613-.08.933-.08h.087c-.14-.486-.34-.946-.594-1.373zm-11.166 3.04c0 3.307 2.693 6 6 6 .287 0 .573-.02.853-.06-.147-.307-.267-.627-.353-.967-.167.02-.333.027-.5.027-2.76 0-5-2.24-5-5s2.24-5 5-5c.833 0 1.62.207 2.313.573l.733-.733c-.893-.533-1.933-.84-3.046-.84-3.307 0-6 2.693-6 6z"/><path d="m10.325 16c0 2.02 1.647 3.667 3.667 3.667.113 0 .227-.007.34-.02 0-.347.033-.687.1-1.02-.14.027-.287.04-.44.04-1.473 0-2.667-1.193-2.667-2.667s1.193-2.667 2.667-2.667c.173 0 .34.013.5.053l.807-.807c-.407-.16-.847-.247-1.307-.247-2.02.001-3.667 1.648-3.667 3.668z"/><path d="m13.992 14.667c-.733 0-1.333.6-1.333 1.333s.6 1.333 1.333 1.333 1.333-.6 1.333-1.333-.6-1.333-1.333-1.333zm0 1.666c-.187 0-.333-.147-.333-.333s.147-.333.333-.333c.187 0 .333.147.333.333s-.147.333-.333.333z"/></g><path d="m13.998 16.5c-.128 0-.256-.049-.354-.146-.195-.195-.195-.512 0-.707l4.333-4.333c.195-.195.512-.195.707 0s.195.512 0 .707l-4.333 4.333c-.097.097-.225.146-.353.146z" fill="#26c6da"/><path d="m20.165 12h-1.667c-.276 0-.5-.224-.5-.5v-1.667c0-.132.053-.26.146-.354l1.333-1.333c.143-.143.358-.186.545-.108.187.077.309.26.309.462v1.167h1.167c.202 0 .384.122.462.309.077.187.035.402-.108.545l-1.333 1.333c-.094.093-.221.146-.354.146z" fill="#26c6da"/><path d="m19.665 15.333c-2.389 0-4.333 1.944-4.333 4.333s1.944 4.334 4.333 4.334 4.333-1.944 4.333-4.333-1.944-4.334-4.333-4.334zm1.867 3.507-2.167 2.333c-.098.106-.232.16-.367.16-.116 0-.231-.04-.326-.12l-1.167-1c-.21-.18-.234-.495-.054-.705s.495-.235.705-.054l.802.687 1.84-1.981c.188-.202.504-.214.707-.026s.214.504.027.706z" fill="#26c6da"/></svg>